<svg xmlns="http://www.w3.org/2000/svg" viewBox="0 0 608 472" preserveAspectRatio="xMidYMid slice" xmlns:c2pa="http://c2pa.org/manifest"><metadata><c2pa:manifest>AAAWgmp1bWIAAAAeanVtZGMycGEAEQAQgAAAqgA4m3EDYzJwYQAAABZcanVtYgAAAEdqdW1kYzJtYQARABCAAACqADibcQN1cm46YzJwYTplNGNkOGNlOS03ODNjLTQyMzItYTk0MS1hZWVhMjJhMmIwNTAAAAADl2p1bWIAAAApanVtZGMyYXMAEQAQgAAAqgA4m3EDYzJwYS5hc3NlcnRpb25zAAAAALxqdW1iAAAARGp1bWRjYm9yABEAEIAAAKoAOJtxE2MycGEuaW5ncmVkaWVudC52MwAAAAAYYzJzaJtsxO3HodVaRjnP80MIAN0AAABwY2JvcqNpZGM6Zm9ybWF0bWltYWdlL3N2Zyt4bWxqaW5zdGFuY2VJRHgseG1wOmlpZDowMTczNTRmOC04MDQ5LTQyMGEtODZiMS1iNTgxNWMwYWViMDRscmVsYXRpb25zaGlwaHBhcmVudE9mAAAB4mp1bWIAAABBanVtZGNib3IAEQAQgAAAqgA4m3ETYzJwYS5hY3Rpb25zLnYyAAAAABhjMnNobGs6744//wqhqNw82ARGEgAAAZljYm9yomdhY3Rpb25zgqJmYWN0aW9ua2MycGEub3BlbmVkanBhcmFtZXRlcnOha2luZ3JlZGllbnRzgaJjdXJseC1zZWxmI2p1bWJmPWMycGEuYXNzZXJ0aW9ucy9jMnBhLmluZ3JlZGllbnQudjNkaGFzaFggqOnA1PwymFDRkc489ObgaR1Qr9jd6fdDt0Dg5uZvmt6kZmFjdGlvbngdY29tLmFudGhyb3BpYy5jbGF1ZGUucHJvdmlkZWRqcGFyYW1ldGVyc6F4H2NvbS5hbnRocm9waWMub3JpZ2luLWNvbmZpZGVuY2VndW5rbm93bmtkZXNjcmlwdGlvbnhmQ2xhdWRlIHByb3ZpZGVkIHRoaXMgZmlsZSBhdCB0aGUgcmVxdWVzdCBvZiBhIHVzZXIgYW5kIG1heSBoYXZlIGNyZWF0ZWQgb3IgbW9kaWZpZWQgdGhlIGZpbGUgY29udGVudHMubXNvZnR3YXJlQWdlbnShZG5hbWVmQ2xhdWRlcmFsbEFjdGlvbnNJbmNsdWRlZPUAAADIanVtYgAAAEBqdW1kY2JvcgARABCAAACqADibcRNjMnBhLmhhc2guZGF0YQAAAAAYYzJzaLSTslQdowkb68DF4AzahnkAAACAY2JvcqVjYWxnZnNoYTI1NmNwYWRNAAAAAAAAAAAAAAAAAGRoYXNoWCBwWQ0VI5Gg5I00SzbCVP6abTSlkFdy2RZj/FHcdPIOm2RuYW1lbmp1bWJmIG1hbmlmZXN0amV4Y2x1c2lvbnOBomVzdGFydBiiZmxlbmd0aBkeBAAAAj5qdW1iAAAAJ2p1bWRjMmNsABEAEIAAAKoAOJtxA2MycGEuY2xhaW0udjIAAAACD2Nib3KlY2FsZ2ZzaGEyNTZpc2lnbmF0dXJleE1zZWxmI2p1bWJmPS9jMnBhL3VybjpjMnBhOmU0Y2Q4Y2U5LTc4M2MtNDIzMi1hOTQxLWFlZWEyMmEyYjA1MC9jMnBhLnNpZ25hdHVyZWppbnN0YW5jZUlEeCx4bXA6aWlkOjZlMjdkZmZiLWU4YzgtNGYzOS04NDg1LWE0NjE0ZGRkMTNiY3JjcmVhdGVkX2Fzc2VydGlvbnODomN1cmx4LXNlbGYjanVtYmY9YzJwYS5hc3NlcnRpb25zL2MycGEuaW5ncmVkaWVudC52M2RoYXNoWCCo6cDU/DKYUNGRzjz05uBpHVCv2N3p90O3QODm5m+a3qJjdXJseCpzZWxmI2p1bWJmPWMycGEuYXNzZXJ0aW9ucy9jMnBhLmFjdGlvbnMudjJkaGFzaFggGarkfHntn5K9usWLyXqkFMOhnGBo4P0nHkcgPmP9fh6iY3VybHgpc2VsZiNqdW1iZj1jMnBhLmFzc2VydGlvbnMvYzJwYS5oYXNoLmRhdGFkaGFzaFggLWiFWS6dKzQ8xR/+A+daB0MUCo99RlSun7Eku0o33q90Y2xhaW1fZ2VuZXJhdG9yX2luZm+jZG5hbWVvQW50aHJvcGljIEZpbGVzZ3ZlcnNpb25lMS4wLjBrc3BlY1ZlcnNpb25lMi40LjAAABA4anVtYgAAAChqdW1kYzJjcwARABCAAACqADibcQNjMnBhLnNpZ25hdHVyZQAAABAIY2JvctKEWQISogEmGCFZAgowggIGMIIBjaADAgECAhRA5aAK7sI50L64g/oGQgU9Z1UTADAKBggqhkjOPQQDAzBJMRcwFQYDVQQKEw5BbnRocm9waWMsIFBCQzEuMCwGA1UEAxMlQW50aHJvcGljIENvbnRlbnQgQ3JlZGVudGlhbHMgUm9vdCBDQTAeFw0yNjA4MDcxODQzNTZaFw0yODA4MDYxOTQzNTZaMEQxFzAVBgNVBAoTDkFudGhyb3BpYywgUEJDMSkwJwYDVQQDEyBBbnRocm9waWMgQ2xhdWRlIENvbnRlbnQgU2lnbmluZzBZMBMGByqGSM49AgEGCCqGSM49AwEHA0IABJh6CmvLUBgFFNU0vUKlOVtE6djd17L5SuwX0LemFisBM3dkd/3cyjxFA3Qo5S46fX0/ihY0VZ7mfb9KF703t5OjWDBWMA4GA1UdDwEB/wQEAwIHgDAVBgNVHSUEDjAMBgorBgEEAYPoXgIBMAwGA1UdEwEB/wQCMAAwHwYDVR0jBBgwFoAUzlHiBIFOZFsj+OPEz5o+nMHXXMIwCgYIKoZIzj0EAwMDZwAwZAIwMXMdFJ4BetLLVY7ORuE9noqbbAZOZn/aArXyTwFAZfKrPzxF2vPoJNf1+UCdg1XGAjBwX1zd9WGqYkqmL5SFqw1QySjr1zJfpJM9+1rdDwSPLMOPOjKuiXjoU/pUUeG9RwmhY3BhZFkNngAAAAAAAAAAAAAAAAAAAAAAAAAAAAAAAAAAAAAAAAAAAAAAAAAAAAAAAAAAAAAAAAAAAAAAAAAAAAAAAAAAAAAAAAAAAAAAAAAAAAAAAAAAAAAAAAAAAAAAAAAAAAAAAAAAAAAAAAAAAAAAAAAAAAAAAAAAAAAAAAAAAAAAAAAAAAAAAAAAAAAAAAAAAAAAAAAAAAAAAAAAAAAAAAAAAAAAAAAAAAAAAAAAAAAAAAAAAAAAAAAAAAAAAAAAAAAAAAAAAAAAAAAAAAAAAAAAAAAAAAAAAAAAAAAAAAAAAAAAAAAAAAAAAAAAAAAAAAAAAAAAAAAAAAAAAAAAAAAAAAAAAAAAAAAAAAAAAAAAAAAAAAAAAAAAAAAAAAAAAAAAAAAAAAAAAAAAAAAAAAAAAAAAAAAAAAAAAAAAAAAAAAAAAAAAAAAAAAAAAAAAAAAAAAAAAAAAAAAAAAAAAAAAAAAAAAAAAAAAAAAAAAAAAAAAAAAAAAAAAAAAAAAAAAAAAAAAAAAAAAAAAAAAAAAAAAAAAAAAAAAAAAAAAAAAAAAAAAAAAAAAAAAAAAAAAAAAAAAAAAAAAAAAAAAAAAAAAAAAAAAAAAAAAAAAAAAAAAAAAAAAAAAAAAAAAAAAAAAAAAAAAAAAAAAAAAAAAAAAAAAAAAAAAAAAAAAAAAAAAAAAAAAAAAAAAAAAAAAAAAAAAAAAAAAAAAAAAAAAAAAAAAAAAAAAAAAAAAAAAAAAAAAAAAAAAAAAAAAAAAAAAAAAAAAAAAAAAAAAAAAAAAAAAAAAAAAAAAAAAAAAAAAAAAAAAAAAAAAAAAAAAAAAAAAAAAAAAAAAAAAAAAAAAAAAAAAAAAAAAAAAAAAAAAAAAAAAAAAAAAAAAAAAAAAAAAAAAAAAAAAAAAAAAAAAAAAAAAAAAAAAAAAAAAAAAAAAAAAAAAAAAAAAAAAAAAAAAAAAAAAAAAAAAAAAAAAAAAAAAAAAAAAAAAAAAAAAAAAAAAAAAAAAAAAAAAAAAAAAAAAAAAAAAAAAAAAAAAAAAAAAAAAAAAAAAAAAAAAAAAAAAAAAAAAAAAAAAAAAAAAAAAAAAAAAAAAAAAAAAAAAAAAAAAAAAAAAAAAAAAAAAAAAAAAAAAAAAAAAAAAAAAAAAAAAAAAAAAAAAAAAAAAAAAAAAAAAAAAAAAAAAAAAAAAAAAAAAAAAAAAAAAAAAAAAAAAAAAAAAAAAAAAAAAAAAAAAAAAAAAAAAAAAAAAAAAAAAAAAAAAAAAAAAAAAAAAAAAAAAAAAAAAAAAAAAAAAAAAAAAAAAAAAAAAAAAAAAAAAAAAAAAAAAAAAAAAAAAAAAAAAAAAAAAAAAAAAAAAAAAAAAAAAAAAAAAAAAAAAAAAAAAAAAAAAAAAAAAAAAAAAAAAAAAAAAAAAAAAAAAAAAAAAAAAAAAAAAAAAAAAAAAAAAAAAAAAAAAAAAAAAAAAAAAAAAAAAAAAAAAAAAAAAAAAAAAAAAAAAAAAAAAAAAAAAAAAAAAAAAAAAAAAAAAAAAAAAAAAAAAAAAAAAAAAAAAAAAAAAAAAAAAAAAAAAAAAAAAAAAAAAAAAAAAAAAAAAAAAAAAAAAAAAAAAAAAAAAAAAAAAAAAAAAAAAAAAAAAAAAAAAAAAAAAAAAAAAAAAAAAAAAAAAAAAAAAAAAAAAAAAAAAAAAAAAAAAAAAAAAAAAAAAAAAAAAAAAAAAAAAAAAAAAAAAAAAAAAAAAAAAAAAAAAAAAAAAAAAAAAAAAAAAAAAAAAAAAAAAAAAAAAAAAAAAAAAAAAAAAAAAAAAAAAAAAAAAAAAAAAAAAAAAAAAAAAAAAAAAAAAAAAAAAAAAAAAAAAAAAAAAAAAAAAAAAAAAAAAAAAAAAAAAAAAAAAAAAAAAAAAAAAAAAAAAAAAAAAAAAAAAAAAAAAAAAAAAAAAAAAAAAAAAAAAAAAAAAAAAAAAAAAAAAAAAAAAAAAAAAAAAAAAAAAAAAAAAAAAAAAAAAAAAAAAAAAAAAAAAAAAAAAAAAAAAAAAAAAAAAAAAAAAAAAAAAAAAAAAAAAAAAAAAAAAAAAAAAAAAAAAAAAAAAAAAAAAAAAAAAAAAAAAAAAAAAAAAAAAAAAAAAAAAAAAAAAAAAAAAAAAAAAAAAAAAAAAAAAAAAAAAAAAAAAAAAAAAAAAAAAAAAAAAAAAAAAAAAAAAAAAAAAAAAAAAAAAAAAAAAAAAAAAAAAAAAAAAAAAAAAAAAAAAAAAAAAAAAAAAAAAAAAAAAAAAAAAAAAAAAAAAAAAAAAAAAAAAAAAAAAAAAAAAAAAAAAAAAAAAAAAAAAAAAAAAAAAAAAAAAAAAAAAAAAAAAAAAAAAAAAAAAAAAAAAAAAAAAAAAAAAAAAAAAAAAAAAAAAAAAAAAAAAAAAAAAAAAAAAAAAAAAAAAAAAAAAAAAAAAAAAAAAAAAAAAAAAAAAAAAAAAAAAAAAAAAAAAAAAAAAAAAAAAAAAAAAAAAAAAAAAAAAAAAAAAAAAAAAAAAAAAAAAAAAAAAAAAAAAAAAAAAAAAAAAAAAAAAAAAAAAAAAAAAAAAAAAAAAAAAAAAAAAAAAAAAAAAAAAAAAAAAAAAAAAAAAAAAAAAAAAAAAAAAAAAAAAAAAAAAAAAAAAAAAAAAAAAAAAAAAAAAAAAAAAAAAAAAAAAAAAAAAAAAAAAAAAAAAAAAAAAAAAAAAAAAAAAAAAAAAAAAAAAAAAAAAAAAAAAAAAAAAAAAAAAAAAAAAAAAAAAAAAAAAAAAAAAAAAAAAAAAAAAAAAAAAAAAAAAAAAAAAAAAAAAAAAAAAAAAAAAAAAAAAAAAAAAAAAAAAAAAAAAAAAAAAAAAAAAAAAAAAAAAAAAAAAAAAAAAAAAAAAAAAAAAAAAAAAAAAAAAAAAAAAAAAAAAAAAAAAAAAAAAAAAAAAAAAAAAAAAAAAAAAAAAAAAAAAAAAAAAAAAAAAAAAAAAAAAAAAAAAAAAAAAAAAAAAAAAAAAAAAAAAAAAAAAAAAAAAAAAAAAAAAAAAAAAAAAAAAAAAAAAAAAAAAAAAAAAAAAAAAAAAAAAAAAAAAAAAAAAAAAAAAAAAAAAAAAAAAAAAAAAAAAAAAAAAAAAAAAAAAAAAAAAAAAAAAAAAAAAAAAAAAAAAAAAAAAAAAAAAAAAAAAAAAAAAAAAAAAAAAAAAAAAAAAAAAAAAAAAAAAAAAAAAAAAAAAAAAAAAAAAAAAAAAAAAAAAAAAAAAAAAAAAAAAAAAAAAAAAAAAAAAAAAAAAAAAAAAAAAAAAAAAAAAAAAAAAAAAAAAAAAAAAAAAAAAAAAAAAAAAAAAAAAAAAAAAAAAAAAAAAAAAAAAAAAAAAAAAAAAAAAAAAAAAAAAAAAAAAAAAAAAAAAAAAAAAAAAAAAAAAAAAAAAAAAAAAAAAAAAAAAAAAAAAAAAAAAAAAAAAAAAAAAAAAAAAAAAAAAAAAAAAAAAAAAAAAAAAAAAAAAAAAAAAAAAAAAAAAAAAAAAAAAAAAAAAAAAAAAAAAAAAAAAAAAAAAAAAAAAAAAAAAAAAAAAAAAAAAAAAAAAAAAAAAAAAAAAAAAAAAAAAAAAAAAAAAAAAAAAAAAAAAAAAAAAAAAAAAAAAAAAAAAAAAAAAAAAAAAAAAAAAAAAAAAAAAAAAAAAAAAAAAAAAAAAAAAAAAAAAAAAAAAAAAAAAAAAAAAAAAAAAAAAAAAAAAAAAAAAAAAAAAAAAAAAAAAAAAAAAAAAAAAAAAAAAAAAAAAAAAAAAAAAAAAAAAAAAAAAAAAAAAAAAAAAAAAAAAAAAAAAAAAAAAAAAAAAAAAAAAAAAAAAAAAAAAAAAAAAAAAAAAAAAAAAAAAAAAAAAAAAAAAAAAAAAAAAAAAAAAAAAAAAAAAAAAAAAAAAAAAAAAAAAAAAAAAAAAAAAAAAAAAAAAAAAAAAAAAAAAAAAAAAAAAAAAAAAAAAAAAAAAAAAAAAAAAAAAAAAAAAAAAAAAAAAAAAAAAAAAAAAAAAAAAAAAAAAAAAAAAAAAAAAAAAAAAAAAAAAAAAAAAAAAAAAAAAAAAAAAAAAAAAAAAAAAAAAAAAAAAAAAAAAAAAAAAAAAAAAAAAAAAAAAAAAAAAAAAAAAAAAAAAAAAAAAAAAAAAAAAAAAAAAAAAAAAAAAAAAAAAAAAAAAAAAAAAAAAAAAAAAAAAAAAAAAAAAAAAAAAAAAAAAAAAAAAAAAAAAAAAAAAAAAAAAAAAAAAAAAAAAAAAAAAAAAAAAAAAAAAAAAAAAAAAAAAAAAAAAAAAAAAAAAAAAAAAAAAAAAAAAAAAAAAAAAAAAAAAAAAAAAAAAAAAAAAAAAAAAAAAAAAAAAAAAAAAAAAAAAAAAAAAAAAAAAAAAAAAAAAAAAAAAAAAAAAAAAAAAAAAAAAAAAAAAAAAAAAAAAAAAAAAAAAAAAAAAAAAAAAAAAAAAAAAAAAAAAAAAAAAAAAAAAAAAAAAAAAAAAAAAAAAAAAAAAAAAAAAAAAAAAAAAAAAAAAAAAAAAAAAAAAAAAAAAAAAAAAAAAAAAAAAAAAAAAAAAAAAAAAAAAAAAAAAAAAAAAAAAAAAAAAAAAAAAAAAAAAAAAAAAAAAAAAAAAAAAAAAAAAAAAAAAAAAAAAAAAAAAAAPZYQBIPZjEWu2XmmIQOFuT4jHzva4OH0RUlOOYABDaxiEZeqVukCPyQ4Jj29pNQFr2Dx2yZ3zjukmLzZIXSqOcBnkU=</c2pa:manifest></metadata><defs><linearGradient id="sea" x1="0" y1="0" x2="0" y2="1"><stop offset="0" stop-color="#bfe6f3"/><stop offset="1" stop-color="#8fd3ea"/></linearGradient></defs><rect width="608" height="472" fill="url(#sea)"/><path d="M747.4,956.0 L739.9,948.8 L735.0,930.2 L724.7,918.6 L705.4,922.9 L704.0,926.7 L707.6,933.6 L700.2,935.8 L686.6,932.8 L675.3,939.5 L662.6,935.4 L662.6,920.3 L670.4,913.4 L672.4,918.6 L690.9,914.7 L693.9,905.8 L658.9,905.4 L649.8,893.3 L659.6,891.6 L652.2,889.3 L651.8,878.0 L647.0,884.7 L640.3,881.9 L643.1,888.3 L638.2,891.1 L611.8,892.0 L607.1,895.6 L602.3,912.1 L580.7,913.6 L568.9,925.0 L554.7,917.8 L553.9,910.5 L544.1,905.2 L583.4,896.5 L578.5,884.6 L586.3,876.4 L570.7,881.4 L575.4,884.6 L576.6,890.2 L574.0,895.4 L539.9,895.4 L535.1,902.5 L535.4,898.3 L525.6,891.6 L545.5,880.6 L543.3,861.5 L529.6,856.2 L516.8,859.6 L519.8,852.7 L518.6,848.0 L544.2,836.2 L548.7,832.0 L551.2,819.7 L566.7,824.3 L573.5,822.5 L572.6,819.1 L583.9,822.5 L584.3,814.1 L593.0,810.2 L601.1,798.3 L607.8,802.2 L607.5,795.0 L613.0,792.1 L632.3,792.1 L648.9,776.2 L658.9,773.0 L675.8,757.5 L688.3,736.4 L695.9,706.3 L695.9,696.0 L701.6,697.9 L711.5,691.2 L696.4,692.8 L686.0,677.7 L688.8,665.5 L695.9,654.0 L705.6,645.7 L697.0,648.8 L682.7,626.6 L687.2,622.0 L685.4,607.6 L694.8,600.2 L692.9,598.4 L645.9,606.8 L635.2,617.0 L632.4,622.9 L634.1,628.8 L630.2,632.1 L619.1,625.4 L595.1,632.1 L599.1,622.0 L618.9,598.0 L629.2,594.1 L652.8,573.4 L655.3,552.7 L658.2,555.4 L678.5,526.9 L728.0,509.3 L721.3,497.4 L736.9,501.9 L744.4,509.9 L760.7,509.4 L799.5,493.9 L834.1,522.7 L834.6,516.8 L853.0,527.4 L859.3,537.4 L852.8,545.0 L861.3,555.3 L868.0,576.2 L873.3,583.6 L885.6,588.6 L887.0,593.8 L886.4,600.5 L878.1,604.8 L867.6,595.4 L857.2,596.7 L847.7,591.9 L828.6,608.7 L829.3,616.0 L824.9,622.2 L826.6,630.5 L852.4,646.5 L844.8,652.1 L841.6,666.6 L829.1,683.4 L830.2,696.1 L844.5,686.5 L850.2,693.0 L843.2,703.4 L819.5,710.9 L816.0,718.4 L818.2,724.8 L836.6,741.0 L852.8,742.3 L846.7,753.4 L852.9,761.2 L839.4,768.9 L831.3,783.7 L835.9,788.6 L828.9,794.5 L832.3,798.6 L829.1,808.1 L834.2,813.4 L839.4,830.3 L852.2,848.0 L864.7,843.6 L884.5,865.5 L897.0,869.9 L892.2,882.1 L893.7,889.1 L891.7,894.5 L895.0,906.7 L891.8,909.2 L894.4,920.2 L887.6,927.7 L866.8,937.7 L854.7,938.6 L850.3,933.6 L822.0,960.6 L823.8,965.8 L820.3,974.2 L805.4,977.5 L769.7,974.0 L752.0,954.9 L747.4,956.0Z M689.9,518.9 L676.0,526.2 L672.3,535.6 L664.0,542.3 L653.4,548.4 L645.0,547.9 L649.0,535.5 L640.1,541.2 L633.2,536.2 L632.6,528.5 L622.4,512.7 L624.2,491.1 L622.4,483.9 L643.2,475.5 L657.6,477.3 L664.4,481.8 L674.9,507.0 L686.5,502.5 L697.8,506.0 L689.9,518.9Z" fill="#efe9dc" stroke="#cfc6b3" stroke-width="1" stroke-linejoin="round"/><path d="M682.1,1226.6 L676.6,1215.0 L681.2,1204.8 L675.3,1204.8 L670.4,1210.0 L673.1,1215.5 L671.3,1220.0 L662.6,1220.0 L676.3,1225.1 L671.3,1226.6 L678.2,1230.1 L676.3,1238.5 L667.9,1230.1 L655.7,1226.6 L633.2,1237.0 L608.6,1240.2 L605.9,1233.5 L596.6,1236.5 L589.7,1261.3 L582.7,1260.0 L568.7,1268.7 L560.9,1282.3 L558.3,1270.5 L553.7,1269.6 L552.0,1278.8 L555.0,1282.3 L543.2,1294.0 L551.1,1295.7 L553.2,1302.8 L547.2,1314.2 L540.3,1315.1 L533.9,1327.7 L526.2,1319.4 L525.2,1310.9 L517.8,1298.0 L493.5,1285.6 L484.0,1289.8 L483.4,1300.8 L472.8,1306.3 L460.6,1304.8 L459.1,1297.4 L462.1,1295.7 L460.0,1285.1 L463.5,1278.0 L488.3,1263.8 L498.7,1269.9 L505.9,1258.6 L516.3,1255.4 L539.8,1231.6 L539.3,1219.5 L554.0,1212.3 L557.6,1188.8 L561.9,1183.0 L568.7,1179.5 L570.7,1189.8 L583.4,1191.3 L572.4,1181.3 L572.6,1172.9 L590.8,1171.4 L597.0,1159.3 L596.6,1153.0 L610.1,1142.9 L621.6,1127.3 L625.4,1118.7 L624.7,1097.0 L629.3,1078.6 L628.8,1068.2 L655.7,1072.7 L674.3,1053.2 L667.4,1034.7 L673.3,1034.7 L671.3,1024.6 L736.9,1011.0 L784.7,1020.4 L791.7,1026.2 L842.5,1017.8 L843.5,1024.6 L846.7,1014.6 L843.5,992.6 L847.8,992.8 L852.4,979.9 L850.3,977.5 L857.9,975.0 L875.4,953.3 L887.1,949.1 L910.0,909.9 L935.0,884.7 L932.6,879.7 L929.4,886.8 L920.6,889.3 L894.4,920.2 L891.8,909.2 L895.0,906.7 L891.7,894.5 L893.7,889.1 L892.2,882.1 L897.0,869.9 L884.5,865.5 L864.7,843.6 L852.2,848.0 L839.4,830.3 L834.2,813.4 L829.1,808.1 L832.3,798.6 L828.9,794.5 L835.9,788.6 L831.3,783.7 L839.4,768.9 L852.9,761.2 L846.7,753.4 L852.8,742.3 L836.6,741.0 L818.2,724.8 L816.0,718.4 L819.5,710.9 L843.2,703.4 L850.2,693.0 L844.5,686.5 L830.2,696.1 L829.1,683.4 L841.6,666.6 L844.8,652.1 L852.4,646.5 L826.6,630.5 L824.9,622.2 L829.3,616.0 L828.6,608.7 L847.7,591.9 L857.2,596.7 L867.6,595.4 L878.1,604.8 L887.1,598.7 L885.6,588.6 L872.6,583.0 L861.3,555.3 L852.8,545.0 L859.1,538.6 L858.4,533.9 L843.8,519.8 L834.6,516.8 L820.1,483.9 L841.6,473.8 L853.4,500.8 L863.6,509.5 L878.7,506.7 L882.6,504.3 L883.3,497.2 L889.5,493.9 L880.3,495.6 L875.2,501.5 L857.4,494.4 L849.4,483.9 L832.1,443.2 L843.5,419.9 L861.1,399.6 L848.8,399.5 L839.6,391.3 L838.6,357.7 L844.2,351.3 L862.6,347.9 L866.9,342.6 L865.3,339.8 L870.9,330.7 L861.6,334.0 L858.3,326.2 L875.8,303.8 L867.5,286.9 L873.7,282.5 L875.8,273.5 L855.3,296.5 L847.0,295.4 L844.5,282.5 L839.6,280.0 L837.9,294.8 L825.9,310.0 L825.9,318.9 L812.3,307.1 L813.4,295.5 L811.2,291.9 L815.9,290.4 L817.1,270.0 L813.6,273.9 L813.5,284.8 L802.9,287.5 L788.5,266.4 L787.7,250.3 L756.1,208.6 L774.0,157.3 L783.9,147.5 L783.8,138.6 L794.6,113.5 L802.9,116.8 L810.3,113.5 L801.4,108.4 L816.2,100.1 L829.1,105.4 L843.5,100.1 L833.7,100.1 L843.5,96.7 L839.5,93.4 L842.9,76.4 L853.3,78.8 L872.0,55.6 L886.8,47.7 L900.1,33.1 L900.5,23.4 L910.7,11.6 L924.9,-0.4 L938.1,-0.2 L943.0,-9.0 L962.4,-21.5 L963.0,-25.6 L942.6,-68.0 L954.7,-70.9 L965.5,-88.1 L976.2,-97.2 L978.9,-106.2 L986.1,-109.1 L1015.6,-66.7 L1020.6,-69.8 L1025.4,-63.3 L1022.5,-61.8 L1032.3,-61.8 L1042.1,-55.0 L1044.0,-46.4 L1042.1,-43.2 L1046.0,-39.8 L1044.8,-36.0 L1048.6,-30.0 L1048.0,-3.7 L1052.8,12.3 L1051.0,20.1 L1059.6,41.0 L1058.2,50.2 L1073.2,88.8 L1080.3,97.5 L1081.3,112.4 L1092.8,150.7 L1107.5,162.3 L1104.6,165.2 L1108.6,174.2 L1102.7,179.1 L1103.7,181.9 L1110.3,183.9 L1112.4,175.7 L1117.3,181.1 L1162.4,196.8 L1194.5,217.3 L1200.2,224.7 L1200.5,231.4 L1210.9,242.9 L1221.9,273.7 L1235.3,281.1 L1241.4,295.2 L1264.0,307.1 L1251.4,314.1 L1243.5,329.0 L1253.2,359.4 L1293.9,422.4 L1296.1,430.6 L1293.5,439.5 L1290.5,442.0 L1294.2,430.3 L1292.0,428.5 L1279.7,421.6 L1261.6,425.3 L1237.7,399.6 L1197.1,406.0 L1183.9,400.5 L1171.1,408.2 L1176.0,411.5 L1186.4,405.4 L1199.2,413.8 L1234.9,406.6 L1247.9,427.9 L1296.5,463.4 L1299.9,472.8 L1306.1,477.3 L1323.6,524.8 L1325.7,544.6 L1321.9,559.1 L1297.8,578.2 L1286.5,595.5 L1278.0,601.9 L1276.3,608.3 L1289.9,607.6 L1299.2,614.3 L1310.0,630.6 L1321.3,628.8 L1329.7,637.3 L1328.9,631.8 L1337.4,619.5 L1344.1,596.7 L1356.1,587.9 L1372.5,583.7 L1413.0,593.3 L1419.5,590.2 L1412.7,586.7 L1456.7,597.8 L1509.5,635.5 L1517.0,646.5 L1524.2,672.5 L1524.2,695.2 L1527.6,706.7 L1515.1,746.4 L1507.5,759.7 L1507.6,777.1 L1500.6,806.1 L1484.9,812.3 L1465.0,840.9 L1455.3,827.5 L1440.1,819.1 L1448.1,828.3 L1456.2,830.7 L1456.7,835.8 L1427.4,837.6 L1457.8,839.3 L1457.3,843.9 L1446.0,856.2 L1455.3,859.6 L1458.4,855.2 L1457.0,864.3 L1441.5,877.7 L1426.9,881.4 L1422.9,879.7 L1414.7,864.6 L1412.1,871.9 L1401.4,879.7 L1399.5,888.3 L1374.5,895.0 L1383.4,901.7 L1407.5,889.2 L1410.7,905.2 L1404.9,918.6 L1410.7,920.3 L1406.8,927.3 L1384.9,942.1 L1367.7,940.2 L1356.0,947.0 L1339.9,947.7 L1336.0,957.1 L1329.7,960.6 L1351.1,951.1 L1374.0,954.7 L1378.0,962.1 L1366.3,962.8 L1354.0,970.6 L1358.4,975.8 L1376.6,977.5 L1374.8,971.2 L1378.5,968.9 L1383.9,982.4 L1414.3,986.1 L1431.9,980.2 L1481.5,977.8 L1478.2,990.1 L1471.4,991.7 L1476.5,1017.4 L1472.4,1034.6 L1444.9,1051.6 L1427.1,1056.1 L1412.7,1076.2 L1414.7,1092.0 L1383.6,1088.9 L1363.9,1106.6 L1326.9,1116.4 L1313.5,1134.0 L1292.2,1130.7 L1250.1,1113.9 L1236.3,1113.4 L1218.1,1120.6 L1166.6,1126.7 L1162.1,1138.3 L1145.8,1128.0 L1145.5,1124.0 L1151.6,1119.0 L1142.2,1115.5 L1143.7,1112.2 L1140.8,1110.4 L1129.1,1110.3 L1124.1,1125.2 L1120.3,1125.8 L1117.4,1122.2 L1122.2,1110.3 L1108.6,1110.3 L1114.4,1116.5 L1114.3,1123.8 L1110.5,1125.6 L1065.5,1092.0 L1086.0,1114.7 L1086.8,1121.0 L1057.2,1130.6 L1052.0,1141.0 L1033.2,1135.8 L1022.0,1140.7 L1009.7,1139.0 L997.9,1147.9 L996.6,1142.4 L986.2,1140.7 L983.8,1135.8 L977.6,1145.9 L984.3,1142.4 L989.0,1150.2 L996.1,1151.4 L996.1,1157.5 L999.0,1159.3 L994.3,1169.7 L980.1,1171.3 L932.5,1159.0 L927.2,1161.0 L923.7,1168.6 L922.9,1173.9 L928.2,1180.7 L924.7,1188.0 L920.4,1172.6 L890.5,1147.4 L866.0,1137.3 L809.6,1151.9 L804.5,1161.0 L794.1,1166.0 L786.6,1163.0 L780.4,1150.9 L784.8,1167.7 L774.4,1189.7 L777.1,1204.8 L770.7,1205.9 L767.3,1211.5 L768.3,1215.5 L777.1,1218.2 L771.5,1231.7 L765.2,1230.1 L764.2,1235.6 L756.5,1240.9 L754.5,1262.1 L752.4,1263.4 L734.1,1265.5 L709.5,1238.5 L697.7,1244.8 L688.5,1235.0 L689.0,1226.6 L682.1,1226.6Z M1123.2,1149.3 L1108.9,1158.9 L1108.1,1169.4 L1092.2,1174.5 L1062.7,1153.2 L1050.8,1156.0 L1059.9,1143.8 L1072.3,1137.3 L1071.4,1140.7 L1074.9,1140.2 L1089.9,1127.7 L1118.2,1139.0 L1123.2,1149.3Z M1380.9,973.6 L1381.4,963.9 L1384.3,961.8 L1403.3,969.3 L1409.3,977.8 L1404.9,982.4 L1388.2,980.9 L1380.9,973.6Z" fill="#efe9dc" stroke="#cfc6b3" stroke-width="1" stroke-linejoin="round"/><path d="M413.5,-77.9 L399.7,-66.4 L387.8,-65.2 L386.1,-59.0 L377.5,-53.3 L374.1,-54.5 L372.9,-65.6 L383.8,-73.4 L379.0,-84.2 L372.1,-87.0 L382.8,-102.1 L368.7,-101.2 L363.3,-88.7 L352.4,-76.9 L346.6,-78.6 L348.6,-87.0 L346.6,-88.8 L354.5,-102.1 L349.7,-105.4 L355.0,-119.8 L371.2,-129.9 L373.1,-129.1 L370.2,-119.0 L374.1,-112.3 L373.1,-118.8 L376.1,-124.3 L398.5,-142.5 L401.3,-139.6 L404.3,-108.0 L414.2,-90.3 L413.5,-77.9Z M462.8,-184.4 L455.6,-175.7 L434.7,-129.1 L426.3,-122.2 L423.9,-108.9 L409.6,-110.1 L406.1,-128.2 L407.8,-136.3 L434.7,-151.1 L421.3,-149.5 L419.1,-153.5 L424.9,-165.5 L459.0,-194.6 L462.1,-193.1 L462.8,-184.4Z M458.8,-254.6 L455.3,-258.7 L449.3,-246.8 L459.6,-250.4 L460.9,-246.5 L445.8,-235.3 L435.6,-236.9 L439.4,-241.4 L436.7,-244.8 L409.1,-228.0 L384.3,-226.7 L380.4,-221.7 L371.8,-225.1 L366.3,-236.1 L374.2,-242.3 L383.2,-233.5 L385.8,-236.9 L382.8,-238.6 L406.4,-243.6 L415.5,-250.8 L396.5,-245.1 L389.5,-250.4 L400.4,-267.1 L417.1,-272.3 L416.1,-280.7 L400.3,-273.5 L393.6,-283.9 L370.2,-292.6 L377.1,-297.5 L372.1,-305.9 L381.9,-309.4 L385.6,-306.5 L387.1,-312.3 L396.9,-317.1 L410.2,-314.3 L409.3,-309.4 L417.3,-304.1 L423.8,-286.2 L447.9,-283.9 L468.7,-267.0 L467.9,-262.1 L463.0,-263.8 L467.4,-255.2 L458.8,-254.6Z M300.7,-276.7 L294.4,-274.8 L292.7,-266.1 L289.7,-266.0 L280.8,-269.9 L277.2,-280.7 L309.0,-291.7 L314.4,-287.3 L303.8,-283.1 L300.7,-276.7Z M348.6,-314.3 L330.5,-298.3 L323.0,-298.9 L321.8,-294.1 L318.3,-300.9 L338.7,-320.4 L353.9,-326.1 L348.6,-314.3Z M217.1,-397.7 L210.0,-388.7 L196.3,-391.2 L202.1,-398.1 L201.0,-405.2 L210.5,-410.4 L211.7,-417.1 L216.6,-413.7 L213.7,-408.5 L222.5,-398.5 L217.1,-397.7Z M383.8,-405.2 L379.1,-391.2 L369.7,-388.4 L353.5,-403.7 L366.5,-416.4 L372.1,-417.1 L382.7,-409.2 L380.0,-407.0 L383.8,-405.2Z M247.9,-477.8 L239.1,-460.9 L225.4,-462.4 L237.1,-455.8 L239.0,-446.9 L237.1,-439.0 L231.9,-441.0 L226.4,-439.0 L236.2,-439.0 L245.0,-432.2 L241.7,-427.4 L225.4,-427.2 L220.0,-434.4 L216.6,-455.8 L210.8,-460.9 L220.2,-479.4 L214.7,-497.9 L224.0,-502.9 L238.2,-494.6 L233.2,-492.9 L244.0,-486.2 L240.1,-484.2 L222.8,-497.9 L219.6,-496.3 L222.9,-490.0 L247.9,-477.8Z M319.2,-492.2 L306.6,-514.9 L315.4,-514.9 L311.9,-522.6 L314.8,-528.4 L331.9,-511.8 L332.9,-518.1 L328.5,-526.0 L338.0,-526.5 L333.0,-534.8 L325.1,-538.4 L328.4,-544.4 L327.1,-551.9 L352.2,-528.6 L358.5,-530.0 L355.2,-522.6 L361.4,-530.7 L374.1,-516.4 L372.2,-524.8 L362.9,-538.5 L367.1,-548.4 L361.4,-550.1 L359.2,-561.4 L374.1,-575.4 L396.5,-547.6 L399.5,-519.7 L397.5,-507.2 L391.7,-499.6 L400.4,-503.0 L399.2,-490.5 L404.3,-484.4 L396.5,-477.8 L412.0,-478.5 L407.4,-470.9 L417.3,-473.2 L429.5,-468.3 L432.7,-462.4 L451.6,-470.9 L468.8,-467.7 L466.6,-455.0 L462.6,-449.3 L449.6,-443.5 L447.0,-433.1 L427.8,-412.8 L417.5,-409.7 L414.6,-418.0 L420.4,-431.7 L426.8,-440.7 L440.6,-449.0 L420.5,-445.6 L412.2,-459.2 L415.1,-450.8 L405.9,-434.0 L402.4,-449.0 L395.0,-452.2 L393.2,-447.2 L373.1,-442.3 L379.0,-452.3 L369.2,-449.0 L364.3,-457.5 L369.2,-462.4 L360.2,-462.5 L349.7,-479.3 L359.1,-484.9 L374.1,-476.0 L372.3,-479.2 L360.5,-489.1 L352.4,-487.9 L354.5,-491.2 L350.6,-492.9 L352.4,-494.6 L350.6,-501.3 L343.7,-496.3 L342.8,-504.8 L336.9,-497.9 L338.0,-487.9 L335.6,-486.0 L319.2,-492.2Z M416.1,-516.4 L413.2,-523.1 L419.1,-523.1 L417.1,-528.3 L419.5,-527.3 L421.0,-524.9 L416.0,-505.5 L420.0,-488.0 L408.2,-484.4 L408.6,-509.9 L416.1,-516.4Z M223.0,-522.9 L246.9,-516.4 L238.9,-510.6 L246.5,-505.6 L230.4,-503.0 L217.6,-512.2 L223.0,-522.9Z M262.6,-553.0 L245.0,-560.3 L253.8,-547.0 L260.7,-548.4 L254.4,-540.7 L242.1,-538.4 L239.1,-543.4 L231.2,-538.4 L256.7,-535.0 L253.3,-528.3 L242.1,-526.5 L230.9,-529.2 L226.4,-536.5 L230.4,-538.4 L212.7,-545.1 L208.6,-542.1 L198.0,-548.4 L207.8,-565.4 L220.5,-565.4 L216.6,-562.0 L219.2,-558.8 L231.2,-571.9 L228.3,-565.4 L239.1,-562.0 L236.2,-565.4 L249.9,-571.9 L252.2,-567.3 L248.8,-563.7 L265.2,-561.5 L266.5,-558.5 L262.6,-553.0Z M279.6,-582.9 L257.9,-608.4 L261.9,-608.7 L264.5,-602.4 L277.9,-615.3 L288.0,-616.0 L281.1,-622.6 L288.4,-626.5 L299.7,-624.4 L294.9,-629.1 L298.7,-632.6 L274.4,-637.5 L259.7,-646.1 L268.4,-651.3 L267.5,-654.6 L285.1,-661.3 L267.5,-658.0 L272.4,-661.3 L268.4,-662.8 L272.4,-668.0 L265.0,-663.8 L259.7,-673.1 L258.2,-682.0 L262.5,-689.8 L259.7,-693.2 L273.3,-695.0 L268.1,-697.9 L268.6,-705.6 L271.4,-708.6 L289.0,-701.7 L284.8,-700.3 L295.8,-674.7 L291.8,-689.8 L294.4,-695.0 L304.6,-698.2 L313.4,-689.8 L317.3,-695.0 L310.4,-705.1 L306.6,-705.1 L302.6,-713.5 L305.6,-715.2 L301.7,-718.5 L316.4,-731.9 L338.9,-739.0 L380.3,-774.3 L389.2,-766.7 L394.7,-751.6 L387.8,-738.8 L394.6,-733.6 L373.1,-714.4 L373.1,-708.6 L366.3,-706.8 L379.8,-701.7 L397.0,-712.0 L395.7,-701.7 L385.2,-693.7 L361.4,-700.1 L366.3,-688.3 L365.3,-683.1 L348.6,-673.1 L330.1,-669.7 L360.4,-674.7 L366.3,-662.8 L361.4,-659.6 L368.2,-658.0 L357.9,-649.4 L340.7,-652.8 L353.5,-641.0 L346.1,-632.7 L339.9,-634.5 L341.8,-629.1 L338.6,-627.6 L328.6,-637.8 L330.1,-627.6 L323.4,-632.2 L317.3,-649.4 L323.5,-659.4 L334.0,-662.8 L320.3,-662.8 L309.5,-649.4 L322.3,-631.0 L319.2,-629.1 L323.2,-625.9 L324.2,-619.0 L306.2,-623.6 L303.5,-619.0 L309.5,-616.0 L312.6,-607.0 L305.6,-605.6 L306.6,-602.4 L296.8,-607.5 L298.7,-602.4 L291.8,-595.6 L293.9,-593.9 L279.6,-582.9Z M854.6,77.4 L842.9,76.4 L839.5,93.4 L827.3,96.7 L775.1,90.7 L771.6,94.5 L765.2,90.0 L763.6,117.5 L744.2,118.1 L741.2,123.3 L730.7,124.4 L728.0,121.7 L731.0,120.2 L730.1,116.8 L724.2,127.1 L729.1,131.9 L709.1,144.9 L697.8,145.5 L694.8,130.3 L691.1,135.6 L692.0,143.7 L686.4,144.6 L674.1,131.6 L675.3,121.7 L665.3,128.3 L653.0,121.9 L646.4,111.6 L643.1,120.9 L644.4,126.7 L654.8,139.4 L652.8,145.1 L654.9,148.7 L654.3,162.1 L649.4,167.5 L633.0,162.4 L618.8,144.1 L592.5,129.9 L589.8,122.9 L581.3,121.7 L567.7,136.8 L576.1,161.5 L580.2,165.0 L581.3,179.1 L569.2,174.2 L566.9,168.6 L567.7,155.6 L562.9,153.9 L560.8,145.1 L538.8,118.6 L535.4,100.1 L536.8,86.7 L544.8,81.1 L551.3,92.3 L552.5,105.8 L556.8,110.6 L561.9,108.4 L562.9,104.9 L554.0,82.3 L560.1,54.2 L580.2,34.2 L585.1,7.5 L593.6,-1.9 L597.0,-12.8 L611.1,-21.4 L615.8,-33.0 L611.1,-43.1 L605.9,-44.9 L608.9,-49.3 L605.1,-59.9 L587.2,-67.8 L588.3,-71.9 L572.6,-85.3 L581.0,-97.1 L577.4,-137.2 L589.9,-146.6 L608.0,-140.6 L635.2,-139.3 L607.8,-147.5 L592.1,-161.3 L586.3,-176.2 L583.4,-174.9 L584.4,-169.4 L592.8,-155.0 L582.4,-154.0 L580.4,-173.3 L596.1,-207.7 L582.4,-184.6 L578.3,-186.4 L576.4,-199.7 L572.6,-198.2 L577.5,-176.7 L574.9,-170.3 L576.5,-154.4 L567.7,-156.1 L573.5,-147.5 L565.6,-127.4 L555.2,-128.6 L551.1,-146.8 L543.6,-159.4 L541.3,-157.6 L549.0,-140.2 L548.9,-132.7 L536.7,-141.1 L535.4,-149.4 L526.7,-130.6 L532.5,-115.5 L517.4,-122.6 L512.9,-133.3 L515.0,-146.8 L512.9,-156.1 L532.0,-186.3 L546.3,-194.2 L555.0,-210.1 L569.8,-218.7 L572.6,-225.2 L552.0,-213.3 L545.7,-199.9 L528.7,-188.7 L516.8,-171.2 L511.9,-169.5 L508.6,-159.2 L499.3,-159.4 L497.8,-163.7 L496.3,-146.0 L499.7,-144.2 L504.1,-130.6 L505.1,-125.9 L503.1,-124.1 L511.0,-115.7 L515.9,-103.6 L499.4,-88.4 L491.3,-69.6 L492.2,-61.1 L496.3,-56.6 L491.5,-51.0 L488.3,-30.2 L477.8,-16.2 L483.6,-11.2 L487.7,-3.0 L486.3,0.7 L473.3,13.5 L453.5,15.8 L449.5,11.8 L448.3,-9.1 L459.1,-21.2 L460.2,-44.7 L458.2,-49.9 L465.1,-68.6 L464.0,-76.9 L471.8,-83.3 L478.3,-97.4 L489.2,-105.2 L496.3,-119.0 L475.7,-99.0 L467.0,-107.1 L465.0,-119.0 L479.7,-140.8 L465.4,-129.1 L461.8,-136.3 L479.7,-166.1 L471.9,-162.9 L462.6,-141.6 L460.2,-142.8 L461.8,-152.5 L478.8,-180.8 L485.4,-178.1 L481.5,-189.1 L488.5,-203.2 L474.8,-191.3 L482.7,-210.1 L481.4,-213.3 L490.9,-220.9 L488.1,-223.5 L476.7,-218.3 L479.5,-237.5 L483.6,-243.6 L497.3,-245.3 L484.5,-245.3 L496.0,-265.3 L531.4,-266.7 L544.3,-281.7 L552.0,-295.8 L532.5,-270.5 L511.2,-273.2 L507.3,-269.7 L502.6,-280.7 L494.3,-273.8 L500.2,-289.1 L510.3,-284.6 L526.7,-295.8 L508.1,-287.3 L502.1,-290.8 L518.6,-315.8 L515.9,-319.5 L561.9,-332.9 L538.3,-327.9 L527.2,-333.0 L544.1,-358.1 L527.9,-343.9 L522.9,-332.2 L499.2,-314.9 L465.0,-279.0 L451.3,-289.1 L454.3,-297.5 L447.9,-290.4 L439.3,-292.2 L418.0,-309.0 L417.3,-314.8 L428.0,-317.8 L441.5,-310.9 L437.7,-319.5 L452.8,-329.1 L468.8,-324.3 L483.6,-327.8 L470.4,-326.2 L454.2,-332.5 L433.2,-322.8 L404.4,-328.2 L395.4,-323.6 L386.7,-327.8 L385.0,-336.0 L392.7,-342.4 L414.7,-344.6 L423.5,-349.8 L439.6,-340.5 L434.7,-349.8 L453.2,-349.8 L442.5,-354.9 L439.7,-360.6 L456.5,-364.5 L467.0,-371.5 L455.0,-366.8 L449.3,-368.3 L456.3,-376.7 L429.8,-376.7 L439.6,-378.2 L435.6,-383.5 L442.5,-402.0 L453.4,-409.2 L467.2,-397.6 L479.7,-398.7 L486.5,-403.7 L471.5,-400.7 L463.4,-405.0 L464.2,-411.6 L461.0,-413.7 L449.9,-415.4 L448.3,-417.3 L450.4,-421.3 L459.1,-432.2 L469.0,-434.5 L481.5,-427.4 L504.1,-428.8 L501.3,-432.3 L484.1,-428.8 L464.0,-441.5 L471.9,-455.8 L469.3,-460.0 L478.7,-468.2 L483.6,-469.3 L497.5,-457.5 L503.1,-459.2 L489.6,-470.9 L498.3,-481.2 L494.9,-482.5 L478.7,-470.9 L458.4,-472.6 L457.1,-476.0 L467.8,-489.7 L473.7,-486.7 L489.7,-493.9 L496.0,-499.4 L497.3,-506.3 L480.8,-491.9 L469.9,-494.6 L474.6,-498.3 L472.8,-505.1 L460.3,-491.1 L445.9,-489.9 L443.5,-499.6 L445.5,-511.4 L438.6,-513.9 L436.7,-524.0 L440.3,-540.0 L442.5,-540.0 L441.5,-545.1 L446.5,-545.6 L469.9,-528.3 L467.9,-533.3 L488.1,-535.8 L477.3,-540.6 L467.0,-536.5 L462.1,-541.9 L464.0,-545.1 L459.3,-545.9 L452.4,-558.5 L446.2,-560.6 L448.4,-573.7 L456.4,-576.7 L462.4,-572.5 L465.0,-577.1 L446.5,-585.5 L445.5,-607.5 L450.4,-616.0 L461.5,-616.3 L465.0,-614.2 L467.0,-597.4 L474.8,-592.0 L471.9,-597.4 L477.8,-595.6 L477.7,-607.0 L467.9,-622.6 L473.8,-631.0 L482.7,-627.6 L481.8,-620.9 L491.7,-613.0 L496.3,-612.5 L502.0,-625.9 L529.6,-610.8 L505.1,-628.4 L505.1,-632.6 L509.0,-634.5 L518.8,-625.9 L532.8,-623.3 L551.1,-607.5 L547.4,-616.7 L529.6,-629.1 L533.5,-632.7 L532.0,-638.7 L519.5,-643.7 L508.9,-655.6 L500.2,-656.1 L502.1,-661.3 L497.4,-669.2 L500.1,-672.5 L505.6,-671.1 L509.0,-664.7 L518.3,-665.7 L521.7,-669.7 L519.8,-678.1 L521.7,-679.8 L518.8,-681.6 L526.7,-684.8 L513.9,-693.2 L515.0,-698.4 L505.1,-708.6 L505.3,-712.7 L519.3,-707.7 L530.4,-712.7 L536.5,-710.1 L542.8,-715.2 L570.7,-703.3 L563.8,-710.1 L571.7,-713.5 L554.1,-712.3 L541.8,-723.6 L536.5,-735.4 L539.3,-735.4 L538.0,-740.5 L540.8,-750.4 L558.9,-743.8 L553.1,-752.2 L547.2,-750.4 L549.1,-753.9 L546.2,-755.7 L554.1,-760.0 L561.9,-755.7 L546.2,-768.2 L546.1,-772.7 L557.2,-782.2 L562.9,-802.9 L584.6,-797.2 L589.2,-785.9 L587.2,-777.4 L590.9,-781.6 L593.1,-797.7 L609.7,-785.1 L595.3,-758.6 L616.6,-777.4 L620.5,-789.6 L630.1,-789.9 L643.1,-782.7 L643.1,-777.4 L633.2,-758.9 L654.9,-780.9 L660.1,-782.7 L670.4,-777.4 L668.4,-779.2 L672.4,-784.1 L692.3,-786.5 L699.8,-794.7 L703.4,-788.7 L718.8,-787.5 L761.4,-802.6 L769.2,-801.0 L767.3,-799.4 L770.7,-796.4 L782.9,-799.4 L794.7,-796.1 L796.6,-801.0 L787.7,-809.6 L793.2,-814.9 L798.1,-807.7 L817.5,-810.9 L825.0,-806.1 L843.9,-805.8 L839.6,-792.7 L828.2,-774.4 L829.7,-767.5 L837.5,-767.2 L839.0,-762.9 L828.1,-739.2 L815.2,-723.6 L791.7,-713.5 L773.1,-689.8 L731.2,-661.2 L725.1,-649.4 L705.2,-638.7 L703.7,-632.6 L691.9,-639.7 L692.9,-634.5 L701.6,-631.8 L705.6,-625.9 L702.6,-616.0 L693.9,-617.5 L689.0,-612.5 L672.8,-617.5 L661.3,-614.7 L647.9,-625.9 L660.0,-612.0 L674.2,-613.9 L682.6,-606.6 L684.9,-606.7 L684.1,-610.8 L698.2,-603.8 L706.3,-609.7 L716.1,-601.2 L732.7,-615.7 L735.4,-613.0 L733.9,-606.9 L705.6,-573.7 L700.6,-574.2 L701.6,-580.5 L697.8,-583.9 L679.9,-572.1 L661.9,-569.8 L642.8,-544.6 L675.1,-568.6 L690.1,-564.4 L702.6,-571.9 L700.3,-563.7 L687.0,-548.4 L689.0,-545.1 L679.6,-543.0 L677.5,-537.4 L666.5,-538.4 L674.3,-535.0 L668.4,-524.9 L676.1,-523.5 L698.9,-539.5 L692.0,-546.7 L727.1,-548.4 L757.4,-565.4 L754.5,-560.3 L762.3,-560.3 L759.4,-566.9 L770.2,-565.4 L774.5,-569.5 L776.5,-577.9 L788.3,-580.5 L806.0,-579.7 L841.7,-567.0 L858.6,-575.4 L895.3,-574.1 L927.6,-566.9 L942.4,-568.3 L947.2,-573.7 L959.4,-568.7 L973.9,-575.9 L989.7,-575.4 L993.2,-568.7 L999.0,-570.4 L1013.7,-553.5 L1017.9,-531.9 L1023.5,-524.9 L1020.5,-522.9 L1023.7,-519.1 L1010.8,-499.6 L992.2,-481.2 L979.6,-445.6 L979.2,-436.0 L982.3,-431.9 L962.7,-398.9 L960.8,-390.1 L962.8,-381.7 L943.7,-353.9 L928.5,-341.6 L919.8,-317.6 L920.8,-310.9 L915.9,-302.3 L889.5,-280.7 L885.5,-272.3 L838.0,-267.9 L812.7,-247.3 L800.5,-246.8 L813.7,-244.4 L863.1,-269.5 L874.8,-262.1 L874.0,-253.0 L869.8,-246.8 L873.3,-246.8 L874.8,-241.8 L892.7,-237.6 L907.1,-226.7 L896.8,-213.1 L874.3,-203.2 L851.7,-207.5 L828.5,-187.1 L823.3,-172.6 L797.8,-163.6 L750.8,-169.4 L727.1,-184.6 L751.3,-160.1 L799.4,-155.5 L803.3,-151.4 L829.3,-149.4 L835.5,-143.9 L855.2,-149.4 L866.9,-159.4 L865.1,-164.5 L871.9,-171.6 L898.7,-171.2 L908.1,-162.9 L906.1,-157.6 L916.9,-159.4 L945.5,-140.9 L969.7,-135.9 L986.1,-109.1 L978.2,-105.4 L976.2,-97.2 L965.5,-88.1 L954.7,-70.9 L942.6,-68.0 L963.0,-25.6 L962.4,-21.5 L943.0,-9.0 L938.1,-0.2 L924.9,-0.4 L910.7,11.6 L900.5,23.4 L900.1,33.1 L886.8,47.7 L872.0,55.6 L854.6,77.4Z M550.1,-23.1 L530.2,-18.8 L511.9,-29.8 L509.9,-41.5 L511.9,-46.4 L504.4,-62.1 L507.1,-75.4 L519.8,-85.3 L518.8,-88.8 L535.4,-81.9 L540.4,-72.1 L543.2,-60.0 L541.6,-56.7 L547.8,-50.4 L548.1,-44.9 L543.3,-43.1 L544.1,-39.8 L551.1,-36.3 L547.9,-34.1 L550.1,-23.1Z M559.9,-90.4 L544.7,-103.9 L532.7,-135.1 L537.4,-137.5 L549.7,-127.3 L555.8,-115.7 L559.6,-101.5 L557.0,-95.4 L559.9,-90.4Z M803.2,-841.1 L792.6,-858.2 L792.6,-863.3 L785.3,-863.5 L787.2,-871.7 L798.5,-876.7 L811.5,-868.7 L822.0,-850.0 L811.2,-843.1 L827.9,-846.7 L817.3,-839.9 L803.2,-841.1Z M857.9,-844.5 L859.4,-832.5 L855.2,-828.0 L848.4,-834.6 L850.3,-838.2 L844.4,-848.2 L851.3,-850.0 L841.6,-851.5 L863.3,-853.0 L857.9,-844.5Z M888.5,-877.6 L869.6,-865.4 L857.1,-870.8 L849.3,-884.4 L843.3,-879.6 L834.6,-880.2 L836.6,-876.7 L829.8,-873.5 L817.7,-873.6 L812.6,-882.2 L817.1,-895.5 L814.1,-903.7 L811.6,-901.7 L812.3,-897.0 L807.3,-897.0 L810.0,-888.9 L805.4,-882.0 L796.2,-890.0 L794.3,-898.2 L797.6,-907.2 L796.7,-918.3 L806.8,-929.5 L834.6,-925.7 L839.6,-920.8 L836.6,-919.1 L847.4,-908.9 L837.7,-906.4 L827.9,-895.5 L838.1,-892.1 L845.0,-898.5 L850.3,-894.0 L856.2,-897.0 L864.0,-893.8 L863.0,-888.6 L866.0,-888.0 L878.0,-891.8 L877.8,-887.8 L869.8,-882.0 L875.9,-876.1 L878.7,-876.7 L875.8,-883.6 L887.5,-886.1 L888.5,-877.6Z M832.0,-941.0 L839.6,-942.6 L853.4,-938.0 L849.9,-934.4 L850.2,-927.1 L841.5,-926.0 L830.3,-933.1 L832.0,-941.0Z M923.9,-962.8 L917.4,-951.6 L915.7,-956.2 L907.1,-949.3 L908.1,-954.3 L903.2,-954.3 L890.5,-941.5 L891.2,-947.8 L904.4,-959.3 L902.1,-966.2 L914.9,-969.6 L907.1,-960.9 L909.0,-959.4 L925.7,-966.2 L930.7,-972.6 L933.4,-964.4 L923.9,-962.8Z M843.2,-975.4 L851.6,-982.9 L854.3,-981.2 L852.3,-974.5 L848.4,-972.8 L861.6,-968.7 L870.9,-956.2 L863.0,-950.9 L865.1,-957.7 L854.2,-965.8 L850.3,-966.2 L852.3,-960.9 L845.5,-960.9 L835.7,-976.3 L843.2,-975.4Z M1115.1,-1236.2 L1115.3,-1231.9 L1122.4,-1237.4 L1122.0,-1228.4 L1107.5,-1225.4 L1121.3,-1218.9 L1112.4,-1211.4 L1112.9,-1207.7 L1119.3,-1207.0 L1111.0,-1201.1 L1104.6,-1207.0 L1105.7,-1200.2 L1100.8,-1198.6 L1106.5,-1197.0 L1103.6,-1190.2 L1109.6,-1195.2 L1104.6,-1183.3 L1110.0,-1187.3 L1109.6,-1181.8 L1114.4,-1176.8 L1103.6,-1171.7 L1105.0,-1167.8 L1101.7,-1166.4 L1105.7,-1163.2 L1103.2,-1160.4 L1104.6,-1157.1 L1108.6,-1154.8 L1105.7,-1149.4 L1100.8,-1149.8 L1103.4,-1136.6 L1096.8,-1139.4 L1097.1,-1129.1 L1092.9,-1122.8 L1094.8,-1107.2 L1092.9,-1104.2 L1090.0,-1109.2 L1087.7,-1106.9 L1089.1,-1112.7 L1078.4,-1117.5 L1081.3,-1126.6 L1086.0,-1127.9 L1082.2,-1134.5 L1086.0,-1134.5 L1085.2,-1138.9 L1094.6,-1168.3 L1090.9,-1178.3 L1093.7,-1185.6 L1087.5,-1184.4 L1093.9,-1200.2 L1085.1,-1190.2 L1081.1,-1200.0 L1073.4,-1203.6 L1082.2,-1191.9 L1081.2,-1188.3 L1075.3,-1191.9 L1074.3,-1184.1 L1072.3,-1186.8 L1067.1,-1178.4 L1056.8,-1187.4 L1065.5,-1193.4 L1060.2,-1199.8 L1057.2,-1192.2 L1053.8,-1196.4 L1042.9,-1193.4 L1036.5,-1198.9 L1033.6,-1210.1 L1040.9,-1216.5 L1053.8,-1212.0 L1052.8,-1215.4 L1063.4,-1217.8 L1065.5,-1208.5 L1068.4,-1210.3 L1066.5,-1215.4 L1071.8,-1220.1 L1078.7,-1215.8 L1080.1,-1210.3 L1084.1,-1215.4 L1080.1,-1218.9 L1083.1,-1225.4 L1094.9,-1227.3 L1083.9,-1232.0 L1083.1,-1237.3 L1075.7,-1235.8 L1077.2,-1244.0 L1069.4,-1245.9 L1068.4,-1261.0 L1063.6,-1252.4 L1060.9,-1255.3 L1063.6,-1259.3 L1045.1,-1258.8 L1048.4,-1265.9 L1052.8,-1265.9 L1056.9,-1276.8 L1067.1,-1265.1 L1077.2,-1265.9 L1063.6,-1272.6 L1073.4,-1282.6 L1072.3,-1289.5 L1087.1,-1286.0 L1085.9,-1292.7 L1089.1,-1298.0 L1090.4,-1287.4 L1084.1,-1271.0 L1087.1,-1271.0 L1084.1,-1269.2 L1087.1,-1267.5 L1084.1,-1259.3 L1090.0,-1261.0 L1079.3,-1238.8 L1086.0,-1240.7 L1085.8,-1245.1 L1089.7,-1247.6 L1098.8,-1249.1 L1090.0,-1255.8 L1093.3,-1259.0 L1094.9,-1254.3 L1101.1,-1262.4 L1110.4,-1245.9 L1100.1,-1241.1 L1108.5,-1241.3 L1110.4,-1235.5 L1117.3,-1245.9 L1118.2,-1242.4 L1121.7,-1249.2 L1127.2,-1250.7 L1115.1,-1236.2Z M1134.1,-1298.7 L1123.2,-1302.9 L1130.1,-1291.2 L1122.2,-1291.2 L1130.5,-1282.0 L1126.1,-1275.9 L1128.7,-1263.6 L1117.7,-1266.6 L1118.2,-1261.0 L1110.1,-1264.9 L1107.6,-1298.8 L1112.4,-1299.6 L1113.5,-1292.2 L1117.3,-1291.2 L1114.4,-1302.2 L1117.3,-1318.4 L1133.0,-1319.7 L1134.1,-1298.7Z M1136.9,-1318.2 L1139.4,-1316.4 L1138.9,-1324.9 L1142.6,-1329.1 L1140.8,-1336.6 L1149.0,-1347.7 L1152.6,-1342.5 L1148.0,-1334.1 L1153.1,-1337.5 L1157.5,-1348.4 L1165.8,-1342.9 L1162.4,-1338.3 L1166.2,-1336.6 L1157.6,-1326.4 L1160.4,-1323.0 L1153.5,-1316.5 L1157.5,-1308.3 L1155.4,-1306.3 L1136.9,-1309.6 L1136.9,-1318.2Z" fill="#efe9dc" stroke="#cfc6b3" stroke-width="1" stroke-linejoin="round"/><path d="M324.7,312.0 L323.4,306.4 L327.9,297.7 L327.1,293.3 L319.4,286.0 L312.2,289.3 L306.1,284.7 L298.9,270.6 L292.6,266.5 L296.2,262.7 L293.0,250.7 L273.2,233.1 L264.6,237.6 L257.7,248.7 L248.3,252.4 L249.4,256.8 L246.0,262.5 L255.0,272.7 L253.9,279.5 L240.2,286.1 L238.5,290.2 L240.7,293.6 L235.8,303.6 L233.3,303.7 L233.6,294.0 L229.3,296.6 L231.5,306.4 L229.1,306.7 L219.5,304.7 L215.0,301.0 L216.6,298.8 L204.1,303.9 L188.9,300.2 L175.2,285.4 L153.6,282.7 L150.2,264.1 L140.1,260.7 L132.8,246.7 L125.0,244.7 L108.3,221.1 L122.7,214.9 L132.8,201.1 L149.2,203.8 L174.8,186.1 L174.4,181.2 L168.2,183.6 L159.5,177.5 L155.0,179.4 L146.4,172.1 L146.3,165.9 L143.1,163.4 L155.1,155.0 L165.8,161.1 L183.1,151.5 L198.3,152.3 L198.2,139.7 L210.8,122.5 L212.2,105.5 L217.5,100.9 L217.9,88.0 L223.4,80.1 L240.5,71.8 L239.1,76.4 L266.5,78.1 L273.3,71.4 L279.4,55.6 L281.1,41.0 L292.4,46.1 L310.8,45.2 L337.0,36.9 L350.6,27.7 L359.1,31.9 L368.1,29.2 L384.3,37.7 L401.3,35.3 L411.8,45.0 L412.7,61.3 L409.6,70.6 L422.0,75.8 L420.5,93.3 L434.7,103.4 L444.1,119.6 L447.0,132.9 L459.1,142.0 L447.4,127.1 L449.7,122.8 L454.0,124.0 L461.0,131.9 L462.8,139.7 L462.4,146.6 L457.1,155.6 L440.6,162.3 L434.1,169.4 L428.9,179.1 L431.7,185.8 L454.5,167.4 L479.2,167.5 L484.6,173.0 L487.8,187.7 L492.9,194.7 L494.3,207.7 L499.7,215.4 L495.0,230.1 L495.4,238.3 L491.4,243.8 L493.5,246.5 L487.6,251.5 L478.9,235.6 L483.6,222.1 L481.6,208.8 L469.2,195.1 L461.0,192.6 L461.7,199.1 L459.1,202.7 L471.9,207.7 L465.6,210.3 L469.9,212.8 L471.9,226.2 L466.8,241.3 L460.1,248.2 L478.5,240.3 L482.7,244.8 L482.3,261.2 L467.6,278.2 L456.1,273.4 L438.2,278.0 L433.7,308.9 L414.6,324.7 L404.9,325.7 L402.4,322.3 L406.4,320.6 L393.6,316.4 L392.0,311.8 L367.9,307.4 L364.6,319.1 L350.2,318.0 L330.5,325.5 L322.5,317.8 L324.7,312.0Z" fill="#7fa6d6" fill-opacity="0.75" stroke="#3f6fae" stroke-width="1.6" stroke-linejoin="round"/><circle cx="428.5" cy="187.2" r="3.2" fill="#fff" stroke="#0b3d7a" stroke-width="1.5"/><text x="435.5" y="191.2" text-anchor="start" font-family="Inter,Arial,sans-serif" font-size="13" font-weight="600" stroke-linejoin="round" fill="none" stroke="#fff" stroke-width="3.5">Belfast</text><text x="435.5" y="191.2" text-anchor="start" font-family="Inter,Arial,sans-serif" font-size="13" font-weight="600" stroke-linejoin="round" fill="#0b2d55">Belfast</text><circle cx="230.1" cy="89.8" r="3.2" fill="#fff" stroke="#0b3d7a" stroke-width="1.5"/><text x="223.1" y="93.8" text-anchor="end" font-family="Inter,Arial,sans-serif" font-size="13" font-weight="600" stroke-linejoin="round" fill="none" stroke="#fff" stroke-width="3.5">Derry</text><text x="223.1" y="93.8" text-anchor="end" font-family="Inter,Arial,sans-serif" font-size="13" font-weight="600" stroke-linejoin="round" fill="#0b2d55">Derry</text></svg>